<?xml version="1.0" encoding="utf-8"?>
<!-- Generator: Adobe Illustrator 19.2.1, SVG Export Plug-In . SVG Version: 6.00 Build 0)  -->
<svg version="1.1" id="layer" xmlns="http://www.w3.org/2000/svg" xmlns:xlink="http://www.w3.org/1999/xlink" x="0px" y="0px"
	 viewBox="0 0 652 652" style="enable-background:new 0 0 652 652;" xml:space="preserve">
<style type="text/css">
	.st0{fill:#2D1530;}
	.st1{fill:#F8795D;}
</style>
<path class="st0" d="M267.5,329.8h-12.7v-22h12.7v3.8h-8v4.8h7.5v3.8h-7.5v5.7h8V329.8z M294,329.8H288l-9.6-16.6h-0.1
	c0.2,2.9,0.3,5,0.3,6.3v10.3h-4.2v-22h5.9l9.6,16.5h0.1c-0.1-2.9-0.2-4.9-0.2-6.1v-10.4h4.2V329.8z M310.3,329.8h-4.7v-18.1h-6v-3.9
	h16.6v3.9h-6V329.8z M326.7,317.5h1.5c1.1,0.1,2.3-0.2,3.3-0.7c0.7-0.5,1.1-1.4,1.1-2.3c0.1-0.9-0.3-1.7-1.1-2.2
	c-1-0.5-2.2-0.7-3.3-0.7h-1.4V317.5z M326.7,321.3v8.4H322v-22h6.4c3,0,5.2,0.5,6.6,1.6c1.5,1.2,2.3,3.1,2.2,5
	c0,1.2-0.4,2.4-1.1,3.4c-0.8,1.1-1.8,1.9-3,2.4c3.3,5,5.5,8.2,6.5,9.6h-5.1l-5.3-8.4L326.7,321.3z M357.3,329.8h-12.7v-22h12.7v3.8
	h-8v4.8h7.5v3.8h-7.5v5.7h8V329.8z M368.9,318.1h1.5c1.1,0.1,2.3-0.2,3.2-0.9c0.7-0.6,1.1-1.5,1.1-2.5c0.1-0.9-0.2-1.8-0.9-2.4
	c-0.8-0.6-1.8-0.9-2.8-0.8h-2.2V318.1z M379.5,314.6c0.1,2.1-0.7,4.1-2.2,5.4c-1.5,1.3-3.6,1.9-6.3,1.9h-2v7.8h-4.7v-22h7
	c2.7,0,4.7,0.6,6.1,1.7C378.8,310.8,379.6,312.7,379.5,314.6 M390.6,317.5h1.5c1.1,0.1,2.3-0.2,3.3-0.7c0.7-0.5,1.1-1.4,1.1-2.3
	c0.1-0.9-0.3-1.7-1.1-2.2c-1-0.5-2.2-0.7-3.3-0.7h-1.4L390.6,317.5z M390.6,321.3v8.4h-4.7v-22h6.4c3,0,5.2,0.5,6.6,1.6
	c1.5,1.2,2.3,3.1,2.2,5c0,1.2-0.4,2.4-1.1,3.4c-0.8,1.1-1.8,1.9-3,2.4c3.3,5,5.5,8.2,6.5,9.6h-5.1l-5.2-8.4L390.6,321.3z
	 M421.3,329.8h-12.7v-22h12.7v3.8h-8v4.8h7.5v3.8h-7.5v5.7h8V329.8z M447.7,329.8h-5.9l-9.6-16.6h-0.1c0.2,2.9,0.3,5,0.3,6.3v10.3
	h-4.2v-22h5.9l9.6,16.5h0.1c-0.2-2.9-0.2-4.9-0.2-6.1v-10.4h4.2L447.7,329.8z M468.3,329.8h-12.7v-22h12.7v3.8h-8v4.8h7.5v3.8h-7.5
	v5.7h8V329.8z M493.1,307.8V322c0,1.5-0.3,3-1.1,4.3c-0.7,1.2-1.8,2.2-3.2,2.8c-1.5,0.7-3.2,1-4.9,1c-2.8,0-5-0.7-6.6-2.2
	c-1.6-1.6-2.5-3.7-2.4-6v-14.2h4.7v13.5c-0.1,1.3,0.3,2.7,1,3.7c0.9,0.9,2.1,1.3,3.4,1.2c1.2,0.1,2.4-0.3,3.3-1.2
	c0.8-1.1,1.1-2.4,1-3.8v-13.5H493.1z M505.5,317.5h1.5c1.1,0.1,2.3-0.2,3.3-0.7c0.7-0.5,1.1-1.4,1.1-2.3c0.1-0.9-0.3-1.7-1.1-2.2
	c-1-0.5-2.2-0.7-3.3-0.7h-1.4V317.5z M505.5,321.3v8.4h-4.7v-22h6.4c3,0,5.2,0.5,6.6,1.6c1.5,1.2,2.3,3.1,2.2,5
	c0,1.2-0.4,2.4-1.1,3.4c-0.8,1.1-1.8,1.9-3,2.4c3.3,5,5.5,8.2,6.5,9.6h-5.1l-5.3-8.4H505.5z M538.4,329.8h-4.6v-22h12.6v3.8h-8v5.7
	h7.5v3.8h-7.5V329.8z M553.1,307.8h4.7v22h-4.7V307.8z M570.3,317.5h1.5c1.1,0.1,2.3-0.2,3.3-0.7c0.7-0.5,1.1-1.4,1.1-2.3
	c0.1-0.9-0.3-1.7-1.1-2.2c-1-0.5-2.2-0.7-3.3-0.7h-1.4V317.5z M570.3,321.3v8.4h-4.7v-22h6.4c3,0,5.2,0.5,6.6,1.6
	c1.5,1.2,2.3,3.1,2.2,5c0,1.2-0.4,2.4-1.1,3.4c-0.8,1.1-1.8,1.9-3,2.4c3.3,5,5.5,8.2,6.5,9.6H578l-5.3-8.4L570.3,321.3z
	 M601.3,323.7c0.1,1.8-0.7,3.6-2.2,4.7c-1.7,1.2-3.9,1.9-6,1.7c-2.1,0-4.3-0.4-6.2-1.3v-4.3c1.2,0.6,2.5,1,3.8,1.4
	c0.9,0.3,1.9,0.4,2.8,0.4c0.8,0.1,1.7-0.2,2.4-0.6c0.6-0.4,0.9-1,0.9-1.7c0-0.4-0.1-0.8-0.4-1.1c-0.3-0.4-0.7-0.7-1.1-1
	c-0.9-0.6-1.9-1.1-2.9-1.5c-1.1-0.5-2.1-1.1-3-1.8c-0.7-0.6-1.2-1.3-1.6-2.1c-0.4-0.8-0.6-1.8-0.6-2.7c-0.1-1.7,0.7-3.4,2-4.5
	c1.6-1.2,3.5-1.8,5.5-1.7c1.1,0,2.2,0.1,3.3,0.4c1.1,0.3,2.2,0.7,3.3,1.1l-1.5,3.6c-0.9-0.4-1.9-0.7-2.9-1c-0.7-0.2-1.5-0.3-2.3-0.3
	c-0.7,0-1.5,0.2-2,0.6c-0.5,0.4-0.7,1-0.7,1.6c0,0.4,0.1,0.8,0.3,1.1c0.2,0.3,0.5,0.6,0.9,0.9c1,0.6,1.9,1.1,3,1.5
	c1.6,0.7,3.1,1.7,4.2,3C600.9,321.1,601.3,322.3,601.3,323.7 M616.1,329.8h-4.7v-18.1h-6v-3.9H622v3.9h-6V329.8z M252.5,373.3
	c-0.9,0-1.9-0.1-2.8-0.3v-3.9c0.7,0.2,1.5,0.3,2.2,0.3c0.8,0.1,1.7-0.3,2.2-1c0.5-0.9,0.7-2,0.7-3v-20.6h4.7v20.6
	c0,2.6-0.6,4.5-1.8,5.9C256.4,372.7,254.5,373.4,252.5,373.3 M271.3,355.8c0,2.5,0.5,4.3,1.4,5.6c1,1.3,2.6,2,4.2,1.9
	c3.7,0,5.6-2.5,5.6-7.4s-1.9-7.4-5.6-7.4c-1.6-0.1-3.2,0.6-4.2,1.9C271.7,351.4,271.3,353.3,271.3,355.8 M287.3,355.8
	c0,3.6-0.9,6.5-2.7,8.4c-1.8,2-4.4,2.9-7.8,2.9c-3.4,0-6-1-7.8-2.9c-1.8-2-2.7-4.8-2.7-8.4c0-3.7,0.9-6.5,2.7-8.4
	c1.8-1.9,4.4-2.9,7.8-2.9c3.4,0,6,1,7.8,2.9C286.4,349.3,287.3,352.1,287.3,355.8 M294.2,344.8h4.7v22h-4.7V344.8z M326.3,366.8
	h-5.9l-9.6-16.7h-0.1c0.2,2.9,0.3,5,0.3,6.3v10.4h-4.2v-22h5.9l9.6,16.5h0.1c-0.2-2.9-0.2-4.9-0.2-6.1v-10.4h4.2V366.8z
	 M346.8,366.8h-12.7v-22h12.7v3.8h-8v4.8h7.5v3.8h-7.5v5.7h8V366.8z M358.3,366.8h-4.6v-22h12.6v3.8h-8v5.7h7.5v3.8h-7.5V366.8z
	 M372,364.7c0-0.7,0.2-1.4,0.7-1.9c0.5-0.5,1.3-0.7,2-0.7c0.7,0,1.4,0.2,1.9,0.7c0.9,1.1,0.9,2.7,0,3.8c-0.5,0.5-1.2,0.7-1.9,0.7
	c-0.7,0-1.4-0.2-2-0.7C372.2,366,371.9,365.4,372,364.7 M393.4,348.4c-1.6-0.1-3.1,0.7-4.1,2c-1.1,1.6-1.6,3.6-1.5,5.5
	c0,4.9,1.9,7.4,5.6,7.4c1.9-0.1,3.8-0.5,5.6-1.1v3.9c-1.9,0.8-3.9,1.2-6,1.1c-3.2,0-5.7-1-7.3-2.9c-1.7-1.9-2.6-4.7-2.6-8.4
	c0-2.1,0.4-4.1,1.3-6c0.8-1.7,2-3,3.6-4c1.7-0.9,3.6-1.4,5.5-1.4c2.2,0,4.4,0.6,6.5,1.6l-1.5,3.8c-0.8-0.4-1.6-0.7-2.5-1
	C395.1,348.5,394.3,348.4,393.4,348.4 M410,355.8c0,2.5,0.5,4.3,1.4,5.6c1,1.3,2.6,2,4.2,1.9c3.7,0,5.6-2.5,5.6-7.4
	s-1.9-7.4-5.6-7.4c-1.6-0.1-3.2,0.6-4.2,1.9C410.4,351.5,410,353.3,410,355.8 M426,355.8c0,3.6-0.9,6.5-2.7,8.4
	c-1.8,2-4.4,2.9-7.8,2.9c-3.4,0-6-1-7.8-2.9c-1.8-2-2.7-4.8-2.7-8.4c0-3.7,0.9-6.5,2.7-8.4c1.8-1.9,4.4-2.9,7.8-2.9
	c3.4,0,6,1,7.8,2.9C425.1,349.3,426,352.1,426,355.8 M442.2,366.8l-5.3-17.3h-0.2c0.2,3.5,0.3,5.9,0.3,7v10.2h-4.1v-22h6.4l5.2,16.8
	h0.1l5.5-16.8h6.4v22h-4.3v-10.5c0-0.5,0-1.1,0-1.7s0.1-2.4,0.2-5.1h-0.1l-5.7,17.2L442.2,366.8z"/>
<path class="st1" d="M90.9,331.8c-9.7,13.7-28.7,16.9-42.4,7.1c-13.7-9.7-16.9-28.7-7.1-42.4c5.4-7.6,14-12.3,23.3-12.7h1.5
	c14.2,0,26.5,9.8,29.6,23.7H49.3V321h60.2c0.4-2.9,0.6-5.9,0.5-8.9c-1.1-24.3-21.8-43-46-41.9s-43,21.8-41.9,46
	c1.1,23.5,20.5,42,44.1,41.9h2.1c16.7-0.9,31.4-11.1,38.1-26.4H90.9z M121.7,307.4h86.4V321h-86.4V307.4z M194.5,331.8h13.5v41.5
	h-13.5V331.8z M164.8,331.8h13.5v41.5h-13.5V331.8z"/>
</svg>
